<svg xmlns="http://www.w3.org/2000/svg" viewBox="0 96 960 960" ><path d="M153.304 793.051V406.666q0-95.948 75.612-126.742Q304.528 249.13 446 246.478l31.015-63.283H277.051v-53.333h405.898v53.333H543.681L514 246.478q128.449 2.652 210.652 33.069 82.203 30.417 82.203 127.119v386.385q0 62.67-42.732 106.516-42.732 43.846-104.681 44.962l63.507 63.671v20h-79.231l-83.189-83.113H399.471l-83.189 83.113h-79.231v-20l63.507-63.671q-61.949-1.116-104.602-44.962-42.652-43.846-42.652-106.516Zm504.45-143.993H229.058h501.218-72.522ZM482 814.449q23.667 0 40.167-16.5t16.5-40.166q0-23.508-16.5-40.087-16.5-16.58-40.167-16.58t-40.167 16.58q-16.5 16.579-16.5 40.087 0 23.666 16.5 40.166 16.5 16.5 40.167 16.5Zm-2-442.058h243.334-489.335H480Zm-250.942 210h501.218V439.057H229.058v143.334Zm72.522 284.276h356.174q31.158 0 51.84-21.111 20.682-21.11 20.682-52.505V649.058H229.058v143.993q0 31.395 21.015 52.505 21.015 21.111 51.507 21.111ZM480 322.391q-126.666 0-181 14.5t-65.001 35.5h489.335q-10.667-18-64.334-34t-179-16Z"/></svg>